<?xml version="1.0" encoding="UTF-8"?>
<svg id="Layer_2" data-name="Layer 2" xmlns="http://www.w3.org/2000/svg" viewBox="0 0 255.04 39.78">
  <defs>
    <style>
      .cls-1 {
        fill: #0e1132;
      }

      .cls-2 {
        fill: #e41566;
      }
    </style>
  </defs>
  <g id="Layer_1" data-name="Layer 1">
    <g>
      <g>
        <path class="cls-2" d="M22.38,0C18.16,9.99,10.06,17.92,0,22h15.74v14.53c3.11-9.09,10.98-17.28,20.11-21.14h-13.47V0ZM27.16,17.76c-1.62,1.15-3.43,2.52-4.93,4.07-2.19,2.26-2.96,3.5-4.13,5.14v-7.33h-8.95c2.03-1.41,4.13-2.95,5.91-4.7,1.84-1.81,3.44-3.89,4.95-6.03v8.86h7.14Z"/>
        <path class="cls-1" d="M59.74,13.46c-1.37-.86-2.93-1.3-4.66-1.3-1.4,0-2.68.29-3.86.87-1.17.58-2.17,1.37-3,2.36V5.8c0-.54-.17-.98-.5-1.32-.33-.33-.77-.5-1.32-.5s-.95.17-1.3.5c-.34.33-.52.77-.52,1.32v16.21c.02,1.87.46,3.55,1.32,5.05.85,1.49,2.01,2.67,3.48,3.54,1.47.87,3.13,1.3,4.98,1.3s3.54-.43,5.01-1.3c1.47-.86,2.64-2.04,3.5-3.54.86-1.49,1.3-3.18,1.3-5.05s-.4-3.55-1.19-5.03c-.79-1.48-1.88-2.65-3.25-3.52ZM59.86,25.42c-.56,1.02-1.31,1.82-2.26,2.4-.95.58-2.03.87-3.23.87s-2.26-.29-3.22-.87c-.96-.58-1.71-1.38-2.26-2.4-.55-1.02-.82-2.16-.82-3.41s.27-2.42.82-3.41c.54-1,1.3-1.78,2.26-2.36.96-.58,2.03-.87,3.22-.87s2.29.29,3.23.87c.95.58,1.7,1.37,2.26,2.36.56,1,.84,2.13.84,3.41s-.28,2.39-.84,3.41Z"/>
        <path class="cls-1" d="M82.39,13.39c-1.33-.82-2.91-1.23-4.76-1.23s-3.53.42-4.98,1.26c-1.45.84-2.58,2-3.39,3.48-.82,1.48-1.23,3.19-1.23,5.14s.43,3.62,1.3,5.1c.86,1.48,2.06,2.64,3.59,3.48,1.53.84,3.28,1.26,5.24,1.26,1.09,0,2.23-.2,3.43-.6,1.2-.4,2.2-.92,3-1.56.4-.31.59-.68.57-1.1-.02-.43-.24-.82-.64-1.17-.31-.26-.67-.38-1.08-.37-.41.01-.8.15-1.16.41-.47.36-1.1.67-1.87.94-.77.27-1.52.41-2.26.41-1.35,0-2.55-.3-3.59-.89-1.04-.59-1.86-1.4-2.45-2.42-.4-.68-.66-1.43-.79-2.24h13.51c.47,0,.86-.15,1.17-.44.31-.3.46-.67.46-1.12,0-1.87-.35-3.52-1.05-4.96-.7-1.43-1.71-2.56-3.04-3.38ZM71.37,20.44c.12-.68.32-1.31.61-1.9.5-1.03,1.23-1.84,2.19-2.43.96-.59,2.11-.89,3.47-.89,1.18,0,2.19.27,3.02.82.83.55,1.47,1.29,1.92,2.22.32.67.53,1.39.63,2.19h-11.83Z"/>
        <path class="cls-1" d="M105.18,13.39c-1.47-.84-3.15-1.26-5.05-1.26s-3.61.42-5.08,1.26c-1.47.84-2.62,2-3.47,3.48-.84,1.48-1.26,3.19-1.26,5.14s.39,3.62,1.17,5.1c.78,1.48,1.85,2.64,3.22,3.48,1.36.84,2.93,1.26,4.71,1.26,1.64,0,3.08-.42,4.34-1.26,1.09-.73,1.98-1.59,2.67-2.8v1.65c0,1.54-.28,2.84-.85,3.91-.57,1.07-1.33,1.87-2.29,2.42-.96.54-2.01.82-3.15.82-1.23,0-2.33-.23-3.31-.68-.97-.45-1.78-1.08-2.42-1.88-.28-.38-.66-.62-1.12-.71-.46-.1-.91,0-1.33.28-.38.26-.61.6-.69,1.03-.08.43.03.84.34,1.24,1.02,1.28,2.26,2.25,3.73,2.91,1.47.66,3.04,1,4.73,1,1.94,0,3.65-.45,5.14-1.35,1.48-.9,2.64-2.11,3.47-3.64.83-1.53,1.24-3.23,1.24-5.1v-7.68c0-1.94-.42-3.66-1.26-5.14-.84-1.48-2-2.64-3.47-3.48ZM105.62,25.45c-.53,1-1.27,1.78-2.22,2.35-.95.57-2.04.85-3.27.85s-2.32-.28-3.27-.85c-.95-.57-1.69-1.35-2.24-2.35-.55-1-.82-2.14-.82-3.45s.27-2.46.82-3.47c.54-1.01,1.29-1.8,2.24-2.36.95-.57,2.04-.85,3.27-.85s2.32.28,3.27.85c.95.57,1.69,1.36,2.22,2.36.53,1.01.8,2.16.8,3.47s-.27,2.45-.8,3.45Z"/>
        <path class="cls-1" d="M128.68,13.14c-1.29-.7-2.75-1.05-4.39-1.05s-2.97.34-4.23,1.03c-.68.37-1.29.82-1.81,1.34V5.76c0-.54-.17-.98-.5-1.32-.33-.33-.77-.5-1.32-.5s-.95.17-1.3.5c-.34.33-.52.77-.52,1.32v24.17c0,.52.17.95.52,1.3.34.34.78.52,1.3.52s.98-.17,1.32-.52c.33-.34.5-.78.5-1.3v-10.02c0-.88.24-1.65.71-2.33.47-.68,1.11-1.21,1.92-1.62.81-.4,1.71-.6,2.7-.6,1.09,0,2.06.21,2.9.62.84.41,1.51,1.05,2.01,1.9.5.85.75,1.95.75,3.31v8.74c0,.52.17.95.52,1.3.34.34.78.52,1.3.52s.95-.17,1.3-.52c.34-.34.52-.78.52-1.3v-8.74c0-1.97-.37-3.63-1.12-4.98-.75-1.35-1.77-2.38-3.06-3.07Z"/>
        <path class="cls-1" d="M152.11,13.39c-1.47-.84-3.15-1.26-5.05-1.26s-3.61.42-5.08,1.26c-1.47.84-2.62,2-3.47,3.48-.84,1.48-1.26,3.19-1.26,5.14s.42,3.62,1.26,5.1c.84,1.48,2,2.64,3.47,3.48,1.47.84,3.16,1.26,5.08,1.26s3.61-.42,5.08-1.26c1.47-.84,2.62-2,3.45-3.48.83-1.48,1.24-3.18,1.24-5.1s-.42-3.66-1.26-5.14c-.84-1.48-2-2.64-3.47-3.48ZM152.56,25.45c-.53,1-1.27,1.78-2.22,2.35-.95.57-2.04.85-3.27.85s-2.32-.28-3.27-.85c-.95-.57-1.69-1.35-2.24-2.35-.55-1-.82-2.14-.82-3.45s.27-2.46.82-3.47c.54-1.01,1.29-1.8,2.24-2.36.95-.57,2.04-.85,3.27-.85s2.32.28,3.27.85c.95.57,1.69,1.36,2.22,2.36.53,1.01.8,2.16.8,3.47s-.27,2.45-.8,3.45Z"/>
        <path class="cls-1" d="M177.49,12.3c-.99,0-1.79.8-1.79,1.79v8.9c0,3.08-2.51,5.59-5.59,5.59s-5.59-2.51-5.59-5.59v-8.9c0-.99-.8-1.79-1.79-1.79s-1.79.8-1.79,1.79v8.9c0,5.06,4.11,9.17,9.17,9.17s9.17-4.11,9.17-9.17v-8.9c0-.99-.8-1.79-1.79-1.79Z"/>
      </g>
      <g>
        <path class="cls-1" d="M191.86,19.26c-1.04,0-1.88.86-1.88,1.91s.84,1.91,1.88,1.91,1.88-.86,1.88-1.91-.84-1.91-1.88-1.91Z"/>
        <path class="cls-1" d="M231.21,24.28c.07-.04.14-.07.21-.11.99-.54,1.78-1.29,2.34-2.25.56-.95.85-2.05.85-3.26s-.29-2.35-.85-3.3c-.56-.95-1.35-1.71-2.34-2.25-.98-.54-2.11-.81-3.35-.81h-4.34c-.42,0-.79.15-1.07.42-.21.2-.46.56-.46,1.14v16.75c0,.43.15.82.44,1.11.29.3.67.45,1.09.45.57,0,.92-.26,1.12-.47.27-.29.41-.67.41-1.09v-5.64h2.75l3.94,6.43.03.04c.12.17.25.32.39.43.24.2.55.3.92.3.84,0,1.24-.4,1.43-.74.2-.35.33-.92-.14-1.66l-3.37-5.5ZM231.56,18.66c0,.63-.14,1.16-.43,1.63-.29.48-.69.84-1.2,1.12-.52.28-1.14.42-1.84.42h-2.81v-6.42h2.81c.71,0,1.32.14,1.84.42.51.28.9.65,1.2,1.14.29.49.43,1.04.43,1.69Z"/>
        <path class="cls-1" d="M253.65,27.48c-.42-.08-.82.03-1.13.3-.6.5-1.25.88-1.94,1.12-.69.25-1.44.37-2.24.37-.91,0-1.78-.18-2.58-.54-.81-.36-1.53-.87-2.14-1.52-.62-.65-1.11-1.41-1.46-2.26-.35-.85-.53-1.77-.53-2.73s.18-1.83.53-2.66c.35-.84.85-1.6,1.47-2.26.62-.66,1.35-1.18,2.16-1.56.8-.37,1.65-.56,2.54-.56.8,0,1.56.11,2.25.33.66.21,1.25.55,1.76,1.03l.04.03c.11.09.2.16.29.21.11.07.22.13.34.17.16.06.32.09.48.09.47,0,.87-.18,1.15-.53.25-.3.38-.67.38-1.07,0-.45-.19-.85-.52-1.12-.89-.76-1.87-1.33-2.9-1.7s-2.13-.56-3.28-.56c-1.36,0-2.65.27-3.84.81-1.18.53-2.22,1.28-3.11,2.21-.88.93-1.58,2.02-2.08,3.24-.5,1.22-.75,2.53-.75,3.9s.26,2.7.77,3.93c.51,1.22,1.22,2.3,2.11,3.24.89.93,1.94,1.68,3.1,2.21,1.18.54,2.45.81,3.78.81,1.11,0,2.21-.16,3.26-.46,1.12-.33,2.11-.93,2.96-1.79.2-.2.32-.43.37-.68.03-.13.04-.27.04-.42,0-.43-.15-.81-.43-1.1-.25-.25-.54-.41-.88-.47Z"/>
        <path class="cls-1" d="M210.81,13.31c-.27-.64-.8-1.01-1.45-1.01s-1.2.38-1.45,1.03l-6.9,16.61c-.22.44-.21.94.02,1.41.26.53.76.83,1.37.83.32,0,.6-.08.85-.24.26-.17.45-.42.58-.73l1.47-3.58h8.15l1.48,3.58.02.05c.14.29.32.51.54.66.24.17.54.26.86.26.56,0,1.02-.27,1.32-.75.29-.47.31-1.02.07-1.49l-6.93-16.62ZM212.22,24.63h-5.7l2.84-6.92,2.85,6.92Z"/>
      </g>
    </g>
  </g>
</svg>