<?xml version="1.0" encoding="UTF-8" standalone="no"?>
<!-- Created with Inkscape (http://www.inkscape.org/) -->

<svg
   version="1.1"
   id="svg2592"
   xml:space="preserve"
   width="682.66669"
   height="682.66669"
   viewBox="0 0 682.66669 682.66669"
   xmlns="http://www.w3.org/2000/svg"
   xmlns:svg="http://www.w3.org/2000/svg"><defs
     id="defs2596"><clipPath
       clipPathUnits="userSpaceOnUse"
       id="clipPath2610"><path
         d="M 0,512 H 512 V 0 H 0 Z"
         id="path2608" /></clipPath></defs><g
     id="g2598"
     transform="matrix(1.3333333,0,0,-1.3333333,0,682.66667)"><g
       id="g2600"
       transform="translate(375.7773,462.9243)"><path
         d="M 0,0 H -239.559"
         style="fill:none;stroke:#000000;stroke-width:15;stroke-linecap:round;stroke-linejoin:round;stroke-miterlimit:10;stroke-dasharray:none;stroke-opacity:1"
         id="path2602" /></g><g
       id="g2604"><g
         id="g2606"
         clip-path="url(#clipPath2610)"><g
           id="g2612"
           transform="translate(415.8164,462.9243)"><path
             d="m 0,0 h 10.8 c 43.01,0 77.88,-34.859 77.88,-77.879 v -287.508 c 0,-43.009 -34.87,-77.879 -77.88,-77.879 h -341.237 c -43.01,0 -77.879,34.87 -77.879,77.879 v 287.508 c 0,43.02 34.869,77.879 77.879,77.879 h 10.8"
             style="fill:none;stroke:#000000;stroke-width:15;stroke-linecap:round;stroke-linejoin:round;stroke-miterlimit:10;stroke-dasharray:none;stroke-opacity:1"
             id="path2614" /></g><g
           id="g2616"
           transform="translate(395.7969,364.8354)"><path
             d="M 0,0 H -388.297"
             style="fill:none;stroke:#000000;stroke-width:15;stroke-linecap:round;stroke-linejoin:round;stroke-miterlimit:10;stroke-dasharray:none;stroke-opacity:1"
             id="path2618" /></g><g
           id="g2620"
           transform="translate(504.4961,364.8354)"><path
             d="M 0,0 H -78.699"
             style="fill:none;stroke:#000000;stroke-width:15;stroke-linecap:round;stroke-linejoin:round;stroke-miterlimit:10;stroke-dasharray:none;stroke-opacity:1"
             id="path2622" /></g><g
           id="g2624"
           transform="translate(162.2485,306.7759)"><path
             d="M 0,0 V 58.06"
             style="fill:none;stroke:#000000;stroke-width:15;stroke-linecap:round;stroke-linejoin:round;stroke-miterlimit:10;stroke-dasharray:none;stroke-opacity:1"
             id="path2626" /></g><g
           id="g2628"
           transform="translate(162.2485,130.0474)"><path
             d="M 0,0 V 118.039"
             style="fill:none;stroke:#000000;stroke-width:15;stroke-linecap:round;stroke-linejoin:round;stroke-miterlimit:10;stroke-dasharray:none;stroke-opacity:1"
             id="path2630" /></g><g
           id="g2632"
           transform="translate(162.2485,19.6582)"><path
             d="M 0,0 V 51.7"
             style="fill:none;stroke:#000000;stroke-width:15;stroke-linecap:round;stroke-linejoin:round;stroke-miterlimit:10;stroke-dasharray:none;stroke-opacity:1"
             id="path2634" /></g><g
           id="g2636"
           transform="translate(349.7471,218.4165)"><path
             d="M 0,0 V 146.419"
             style="fill:none;stroke:#000000;stroke-width:15;stroke-linecap:round;stroke-linejoin:round;stroke-miterlimit:10;stroke-dasharray:none;stroke-opacity:1"
             id="path2638" /></g><g
           id="g2640"
           transform="translate(349.7471,19.6582)"><path
             d="M 0,0 V 140.069"
             style="fill:none;stroke:#000000;stroke-width:15;stroke-linecap:round;stroke-linejoin:round;stroke-miterlimit:10;stroke-dasharray:none;stroke-opacity:1"
             id="path2642" /></g><g
           id="g2644"
           transform="translate(203.0684,248.0889)"><path
             d="m 0,0 h -127.842 c -12.414,0 -22.478,10.064 -22.478,22.478 v 13.735 c 0,12.414 10.064,22.478 22.478,22.478 H 0 c 12.415,0 22.478,-10.064 22.478,-22.478 V 22.478 C 22.478,10.064 12.415,0 0,0 Z"
             style="fill:none;stroke:#000000;stroke-width:15;stroke-linecap:round;stroke-linejoin:round;stroke-miterlimit:10;stroke-dasharray:none;stroke-opacity:1"
             id="path2646" /></g><g
           id="g2648"
           transform="translate(380.7705,159.7236)"><path
             d="m 0,0 h -127.842 c -12.414,0 -22.478,10.064 -22.478,22.478 v 13.735 c 0,12.414 10.064,22.478 22.478,22.478 H 0 c 12.414,0 22.479,-10.064 22.479,-22.478 V 22.478 C 22.479,10.064 12.414,0 0,0 Z"
             style="fill:none;stroke:#000000;stroke-width:15;stroke-linecap:round;stroke-linejoin:round;stroke-miterlimit:10;stroke-dasharray:none;stroke-opacity:1"
             id="path2650" /></g><g
           id="g2652"
           transform="translate(124.6689,71.3579)"><path
             d="m 0,0 h 169.698 c 12.42,0 22.481,10.06 22.481,22.479 v 13.73 c 0,12.42 -10.061,22.48 -22.481,22.48 H -49.439 c -12.42,0 -22.48,-10.06 -22.48,-22.48 V 22.479 C -71.919,10.06 -61.859,0 -49.439,0 H -30"
             style="fill:none;stroke:#000000;stroke-width:15;stroke-linecap:round;stroke-linejoin:round;stroke-miterlimit:10;stroke-dasharray:none;stroke-opacity:1"
             id="path2654" /></g><g
           id="g2656"
           transform="translate(449.3242,71.3584)"><path
             d="m 0,0 h -43.658 c -12.414,0 -22.478,10.063 -22.478,22.478 v 13.735 c 0,12.414 10.064,22.478 22.478,22.478 H 0 c 12.414,0 22.478,-10.064 22.478,-22.478 V 22.478 C 22.478,10.063 12.414,0 0,0 Z"
             style="fill:none;stroke:#000000;stroke-width:15;stroke-linecap:round;stroke-linejoin:round;stroke-miterlimit:10;stroke-dasharray:none;stroke-opacity:1"
             id="path2658" /></g><g
           id="g2660"
           transform="translate(116.1973,412.4551)"><path
             d="m 0,0 v 0 c -11.056,0 -20.018,8.962 -20.018,20.018 v 39.853 c 0,11.056 8.962,20.018 20.018,20.018 11.056,0 20.018,-8.962 20.018,-20.018 V 20.018 C 20.018,8.962 11.056,0 0,0 Z"
             style="fill:none;stroke:#000000;stroke-width:15;stroke-linecap:round;stroke-linejoin:round;stroke-miterlimit:10;stroke-dasharray:none;stroke-opacity:1"
             id="path2662" /></g><g
           id="g2664"
           transform="translate(395.7988,412.4551)"><path
             d="m 0,0 v 0 c -11.056,0 -20.018,8.962 -20.018,20.018 v 39.853 c 0,11.056 8.962,20.018 20.018,20.018 11.056,0 20.018,-8.962 20.018,-20.018 V 20.018 C 20.018,8.962 11.056,0 0,0 Z"
             style="fill:none;stroke:#000000;stroke-width:15;stroke-linecap:round;stroke-linejoin:round;stroke-miterlimit:10;stroke-dasharray:none;stroke-opacity:1"
             id="path2666" /></g><g
           id="g2668"
           transform="translate(67.9951,339.9937)"><path
             d="M 0,0 H 34.447"
             style="fill:none;stroke:#000000;stroke-width:15;stroke-linecap:round;stroke-linejoin:round;stroke-miterlimit:10;stroke-dasharray:none;stroke-opacity:1"
             id="path2670" /></g><g
           id="g2672"
           transform="translate(415.8164,339.9937)"><path
             d="M 0,0 H 34.447"
             style="fill:none;stroke:#000000;stroke-width:15;stroke-linecap:round;stroke-linejoin:round;stroke-miterlimit:10;stroke-dasharray:none;stroke-opacity:1"
             id="path2674" /></g><g
           id="g2676"
           transform="translate(238.7744,339.9937)"><path
             d="M 0,0 H 34.447"
             style="fill:none;stroke:#000000;stroke-width:15;stroke-linecap:round;stroke-linejoin:round;stroke-miterlimit:10;stroke-dasharray:none;stroke-opacity:1"
             id="path2678" /></g></g></g></g></svg>
